<?xml version="1.0" encoding="utf-8"?>
<!-- Generator: Adobe Illustrator 17.1.0, SVG Export Plug-In . SVG Version: 6.00 Build 0)  -->
<!DOCTYPE svg PUBLIC "-//W3C//DTD SVG 1.1//EN" "http://www.w3.org/Graphics/SVG/1.1/DTD/svg11.dtd">
<svg version="1.1" id="Layer_1" xmlns="http://www.w3.org/2000/svg" xmlns:xlink="http://www.w3.org/1999/xlink" x="0px" y="0px"
	 viewBox="0 0 50 50" enable-background="new 0 0 50 50" xml:space="preserve">
<g>
	<g>
		<defs>
			<rect id="SVGID_1_" x="5" y="4.5" width="40" height="40"/>
		</defs>
		<clipPath id="SVGID_2_">
			<use xlink:href="#SVGID_1_"  overflow="visible"/>
		</clipPath>
		<path clip-path="url(#SVGID_2_)" fill="#EBECE3" d="M25,4.5c-11,0-20,9-20,20c0,11,9,20,20,20c11,0,20-9,20-20
			C45,13.5,36,4.5,25,4.5 M29.3,25.5H26v9h-4v-9h-1v-4h1v-2.8c0-1.6,0.6-4.2,4.1-4.2l2.9,0v4h-1.6c-0.4,0-1.4-0.4-1.4,0.4v2.6h3.6
			L29.3,25.5z"/>
	</g>
</g>
</svg>
