<?xml version="1.0" encoding="utf-8"?>
<!-- Generator: Adobe Illustrator 17.1.0, SVG Export Plug-In . SVG Version: 6.00 Build 0)  -->
<!DOCTYPE svg PUBLIC "-//W3C//DTD SVG 1.1//EN" "http://www.w3.org/Graphics/SVG/1.1/DTD/svg11.dtd">
<svg version="1.1" id="Layer_1" xmlns="http://www.w3.org/2000/svg" xmlns:xlink="http://www.w3.org/1999/xlink" x="0px" y="0px"
	 viewBox="0 0 50 50" enable-background="new 0 0 50 50" xml:space="preserve">
<g>
	<g>
		<defs>
			<rect id="SVGID_1_" x="5" y="4.5" width="40" height="40"/>
		</defs>
		<clipPath id="SVGID_2_">
			<use xlink:href="#SVGID_1_"  overflow="visible"/>
		</clipPath>
		<path clip-path="url(#SVGID_2_)" fill="#79746F" d="M25,4.5c-11,0-20,9-20,20c0,11,9,20,20,20c11,0,20-9,20-20
			C45,13.5,36,4.5,25,4.5 M33.4,18.5c0.3,0,0.4-0.1,0.1,0.1l-8,5c-0.3,0.2-0.7,0.1-1-0.1l-8-4.9c-0.3-0.2-0.2-0.1,0.1-0.1H33.4z
			 M15.2,30.5c-0.3,0-1.2,0.2-1.2-0.2V19.1c0-0.3,0.5-0.4,0.8-0.3l9.6,6c0.3,0.2,0.8,0.2,1.1,0l9.3-6c0.3-0.2,0.3-0.1,0.3,0.3v11.2
			c0,0.3,0.1,0.2-0.2,0.2H15.2z"/>
	</g>
</g>
</svg>
