<svg width="786" height="147" viewBox="0 0 786 147" fill="none" xmlns="http://www.w3.org/2000/svg">
<path d="M105 126C105 131.8 102.9 136.8 98.7 141C94.7 145 89.8 147 84 147H8.9407e-08V126H81V84H21C15.2 84 10.2 82 6 78C2 73.8 8.9407e-08 68.8 8.9407e-08 63V21C8.9407e-08 15.2 2 10.3 6 6.3C10.2 2.1 15.2 -2.86102e-06 21 -2.86102e-06H105V21H24V63H84C89.8 63 94.7 65.1 98.7 69.3C102.9 73.3 105 78.2 105 84V126ZM279.07 84C279.07 89.6 276.97 94.5 272.77 98.7C268.57 102.9 263.67 105 258.07 105H177.07V147H153.07V42L174.07 21H153.07V-2.86102e-06H258.07C263.67 -2.86102e-06 268.57 2.1 272.77 6.3C276.97 10.5 279.07 15.4 279.07 21V84ZM255.07 84V21H177.07V102L195.07 84H255.07ZM454.559 147H430.559V105H352.559V147H328.559V21C328.559 15.2 330.559 10.3 334.559 6.3C338.759 2.1 343.759 -2.86102e-06 349.559 -2.86102e-06H454.559V147ZM430.559 84V21H352.559V102L370.559 84H430.559ZM637.441 147H606.841L544.441 84H610.441V21H532.441V147H508.441V41.7L529.441 21H508.441V-2.86102e-06H613.441C619.041 -2.86102e-06 623.941 2.1 628.141 6.3C632.341 10.5 634.441 15.4 634.441 21V78C634.441 94 627.441 102 613.441 102H595.441V105.3L637.441 147ZM786 147H681V42L702 21H681V-2.86102e-06H786V21H705V81L723 63H786V84H705V126H786V147Z" fill="#79746F"/>
</svg>
