<?xml version="1.0" encoding="utf-8"?>
<!-- Generator: Adobe Illustrator 17.1.0, SVG Export Plug-In . SVG Version: 6.00 Build 0)  -->
<!DOCTYPE svg PUBLIC "-//W3C//DTD SVG 1.1//EN" "http://www.w3.org/Graphics/SVG/1.1/DTD/svg11.dtd">
<svg version="1.1" id="Layer_1" xmlns="http://www.w3.org/2000/svg" xmlns:xlink="http://www.w3.org/1999/xlink" x="0px" y="0px"
	 viewBox="0 0 42 42" enable-background="new 0 0 42 42" xml:space="preserve">
<path fill="#79746F" d="M21,1C10,1,1,10,1,21c0,11,9,20,20,20c11,0,20-9,20-20C41,10,32,1,21,1"/>
<path fill="#EBECE3" d="M12.6,15h16.8c0.3,0,0.4-0.1,0.1,0.1l-8,5c-0.3,0.2-0.7,0.1-1-0.1l-8-4.9C12.2,15,12.3,15,12.6,15 M31,26.8
	V15.6c0-0.3-0.1-0.4-0.3-0.3l-9.3,6c-0.3,0.2-0.8,0.2-1.1,0l-9.6-6c-0.3-0.2-0.8-0.1-0.8,0.3v11.2c0,0.3,0.9,0.2,1.2,0.2h19.6
	C31.1,27,31,27.2,31,26.8"/>
</svg>
